<svg width="821" height="469" viewBox="0 0 821 469" fill="none" xmlns="http://www.w3.org/2000/svg">
<rect x="264" y="66" width="404" height="220" rx="3" fill="#EBEBEC"/>
<rect x="264" y="66" width="404" height="220" rx="3" stroke="black" stroke-width="2"/>
<rect x="264" y="66" width="404" height="220" rx="3" stroke="#261053" stroke-opacity="0.2" stroke-width="2"/>
<rect x="501.5" y="120.5" width="97" height="112" rx="11.5" stroke="black"/>
<rect x="495.5" y="115.5" width="97" height="112" rx="11.5" fill="#C7C7C7" stroke="black"/>
<rect x="299" y="109" width="91" height="20" fill="#4B4B4B"/>
<rect x="299" y="145" width="126" height="11" fill="#584949"/>
<rect x="299" y="145" width="126" height="11" fill="#969090"/>
<rect x="299" y="145" width="126" height="11" fill="#969090"/>
<rect x="299" y="165" width="99" height="11" fill="#584949"/>
<rect x="299" y="165" width="99" height="11" fill="#969090"/>
<rect x="299" y="165" width="99" height="11" fill="#969090"/>
<rect x="299" y="192" width="46" height="11" rx="5.5" fill="#3EFF74"/>
<rect x="85" y="219" width="259" height="164" rx="3" fill="#EBEBEC"/>
<rect x="85" y="219" width="259" height="164" rx="3" stroke="black" stroke-width="2"/>
<rect x="85" y="219" width="259" height="164" rx="3" stroke="#261053" stroke-opacity="0.2" stroke-width="2"/>
<rect x="228.5" y="256.5" width="75" height="95" rx="11.5" stroke="black"/>
<rect x="222.5" y="250.5" width="75" height="95" rx="11.5" fill="#C7C7C7" stroke="black"/>
<rect x="109" y="256" width="59" height="17" fill="#4B4B4B"/>
<rect x="109" y="287" width="79" height="11" fill="#584949"/>
<rect x="109" y="287" width="79" height="11" fill="#969090"/>
<rect x="109" y="287" width="79" height="11" fill="#969090"/>
<rect x="109" y="304" width="71" height="11" fill="#584949"/>
<rect x="109" y="304" width="71" height="11" fill="#969090"/>
<rect x="109" y="304" width="71" height="11" fill="#969090"/>
<rect x="109" y="334" width="46" height="11" rx="5.5" fill="#3EFF74"/>
<rect x="600" y="219" width="118" height="164" rx="3" fill="#EBEBEC"/>
<rect x="600" y="219" width="118" height="164" rx="3" stroke="black" stroke-width="2"/>
<rect x="600" y="219" width="118" height="164" rx="3" stroke="#261053" stroke-opacity="0.2" stroke-width="2"/>
<rect x="633.5" y="321.5" width="54" height="59" rx="11.5" stroke="black"/>
<rect x="629.5" y="313.5" width="54" height="65" rx="11.5" fill="#C7C7C7" stroke="black"/>
<rect x="623" y="242" width="42" height="11" fill="#4B4B4B"/>
<rect x="623" y="262" width="56" height="7" fill="#584949"/>
<rect x="623" y="262" width="56" height="7" fill="#969090"/>
<rect x="623" y="262" width="56" height="7" fill="#969090"/>
<rect x="623" y="278" width="50" height="7" fill="#584949"/>
<rect x="623" y="278" width="50" height="7" fill="#969090"/>
<rect x="623" y="278" width="50" height="7" fill="#969090"/>
<rect x="623" y="294" width="33" height="7" rx="3.5" fill="#3EFF74"/>
<rect x="700" y="322" width="47" height="81" rx="3" fill="#EBEBEC"/>
<rect x="700" y="322" width="47" height="81" rx="3" stroke="black" stroke-width="2"/>
<rect x="700" y="322" width="47" height="81" rx="3" stroke="#261053" stroke-opacity="0.2" stroke-width="2"/>
<rect x="713.5" y="367.5" width="22" height="32" rx="3.5" fill="#C7C7C7" stroke="black"/>
<rect x="709" y="331" width="17" height="5" fill="#4B4B4B"/>
<rect x="709" y="340" width="23" height="3" fill="#584949"/>
<rect x="709" y="340" width="23" height="3" fill="#969090"/>
<rect x="709" y="340" width="23" height="3" fill="#969090"/>
<rect x="709" y="345" width="20" height="3" fill="#584949"/>
<rect x="709" y="345" width="20" height="3" fill="#969090"/>
<rect x="709" y="345" width="20" height="3" fill="#969090"/>
<rect x="709" y="352" width="13" height="3" rx="1.5" fill="#3EFF74"/>
<line x1="253" y1="212" x2="253" y2="110" stroke="#63E6BE" stroke-width="2"/>
<line x1="362" y1="303" x2="572.505" y2="303" stroke="#63E6BE" stroke-width="2"/>
<line x1="627" y1="399" x2="686" y2="399" stroke="#63E6BE" stroke-width="2"/>
<line x1="109" y1="399" x2="319.505" y2="399" stroke="#63E6BE" stroke-width="2"/>
<line x1="253" y1="96" x2="253" y2="80" stroke="#63E6BE" stroke-width="2"/>
<line x1="73" y1="340" x2="73" y2="228" stroke="#63E6BE" stroke-width="2"/>
<line x1="73" y1="373" x2="73" y2="351" stroke="#63E6BE" stroke-width="2"/>
</svg>
